<svg xmlns="http://www.w3.org/2000/svg" viewBox="0 0 64 64">
  <!-- Tree body - green -->
  <polygon points="32,8 20,28 24,28 12,48 20,48 8,64 56,64 44,48 52,48 40,28 44,28" fill="#2f9d70"/>

  <!-- Star on top - gold -->
  <polygon points="32,2 35,10 43,10 37,15 40,23 32,18 24,23 27,15 21,10 29,10" fill="#d4af37"/>

  <!-- Red ornaments -->
  <circle cx="32" cy="20" r="2.5" fill="#c41e3a"/>
  <circle cx="26" cy="24" r="2.5" fill="#c41e3a"/>
  <circle cx="38" cy="24" r="2.5" fill="#c41e3a"/>
  <circle cx="22" cy="34" r="2.5" fill="#c41e3a"/>
  <circle cx="42" cy="34" r="2.5" fill="#c41e3a"/>
  <circle cx="28" cy="42" r="2.5" fill="#c41e3a"/>
  <circle cx="36" cy="42" r="2.5" fill="#c41e3a"/>

  <!-- Trunk - brown -->
  <rect x="28" y="56" width="8" height="8" fill="#8b6f47"/>
</svg>
